<?xml version="1.0" standalone="no"?>
<!DOCTYPE svg PUBLIC "-//W3C//DTD SVG 20010904//EN"
 "http://www.w3.org/TR/2001/REC-SVG-20010904/DTD/svg10.dtd">
<svg version="1.0" xmlns="http://www.w3.org/2000/svg"
 width="500.000000pt" height="500.000000pt" viewBox="0 0 500.000000 500.000000"
 preserveAspectRatio="xMidYMid meet">
<metadata>
Created by potrace 1.16, written by Peter Selinger 2001-2019
</metadata>
<g transform="translate(0.000000,500.000000) scale(0.100000,-0.100000)"
fill="#000000" stroke="none">
<path d="M2235 3850 c-207 -43 -429 -146 -574 -264 -67 -55 -198 -188 -241
-245 -138 -184 -238 -416 -265 -618 -12 -89 10 -59 28 38 51 269 173 497 371
694 198 198 388 303 671 371 106 26 387 31 495 9 217 -43 403 -120 563 -235
266 -191 458 -493 526 -825 11 -53 22 -100 25 -103 17 -16 14 18 -9 123 -75
331 -234 589 -490 790 -152 119 -310 197 -512 251 -88 24 -119 27 -298 30
-167 3 -215 0 -290 -16z"/>
<path d="M2280 3356 c-116 -31 -180 -59 -263 -112 -178 -115 -311 -296 -372
-507 -9 -32 -14 -61 -11 -64 3 -3 7 0 9 8 31 106 44 144 73 203 49 98 88 151
168 232 170 169 371 253 607 254 253 0 443 -80 624 -264 112 -114 163 -197
214 -352 34 -103 41 -96 10 10 -44 146 -123 271 -243 383 -74 70 -191 146
-271 177 -157 62 -384 75 -545 32z"/>
<path d="M2553 2978 c-12 -13 -23 -42 -26 -68 -3 -25 -9 -69 -13 -97 -5 -38
-3 -53 5 -53 9 0 9 -5 1 -20 -9 -17 -7 -22 14 -30 13 -5 29 -16 34 -25 8 -15
12 -15 47 -1 31 13 40 14 47 4 13 -21 9 100 -7 197 -14 90 -28 115 -65 115 -9
0 -26 -10 -37 -22z"/>
<path d="M2785 2980 c-13 -14 -20 -41 -23 -82 -4 -48 -8 -62 -23 -65 -28 -8
-30 -29 -5 -86 26 -58 54 -77 114 -77 47 0 84 -25 80 -53 -3 -17 -11 -21 -56
-25 -32 -2 -71 3 -99 12 -26 9 -48 16 -50 16 -2 0 -3 -15 -3 -32 0 -46 -15
-67 -25 -36 -6 19 -8 20 -12 6 -6 -26 -78 -24 -121 2 -21 13 -42 18 -54 14
-19 -6 -20 -11 -13 -79 3 -39 10 -90 15 -111 5 -21 10 -73 10 -115 0 -42 6
-95 14 -117 8 -22 17 -62 20 -89 3 -28 8 -57 12 -66 7 -18 44 -24 44 -7 0 6
11 15 25 20 14 5 25 14 25 19 0 24 -14 41 -35 41 -25 0 -28 10 -41 175 -4 57
-3 77 5 70 6 -6 13 -61 17 -123 6 -97 9 -112 24 -112 24 0 30 38 30 182 0 66
5 128 10 138 6 10 16 43 24 72 l13 53 13 -70 c7 -39 13 -132 14 -207 1 -142 7
-163 42 -156 21 4 20 -7 27 211 3 86 9 158 13 160 10 3 12 -17 20 -215 7 -176
7 -178 29 -178 19 0 24 7 30 48 4 26 7 85 6 131 -1 75 10 171 25 224 4 13 12
17 26 13 21 -5 21 -3 15 140 -6 144 -7 146 -37 180 -16 19 -30 38 -30 42 0 31
-22 127 -31 138 -17 21 -63 17 -84 -6z"/>
<path d="M2352 2974 c-25 -17 -46 -102 -37 -145 5 -22 16 -35 36 -42 33 -13
35 -19 14 -37 -18 -15 -19 -15 -48 41 -33 63 -73 80 -161 69 -38 -5 -72 -12
-76 -17 -13 -14 -58 -311 -60 -395 0 -5 14 -8 30 -8 30 0 30 1 30 53 l0 52 79
2 c129 4 125 9 139 -153 7 -77 12 -176 12 -221 l0 -83 30 0 30 0 1 73 c1 39 2
83 3 97 7 97 11 86 16 -45 l5 -150 30 0 30 0 -4 101 c-2 62 4 150 14 227 19
135 16 183 -13 172 -9 -3 -48 -9 -86 -12 l-69 -6 5 27 c3 14 1 29 -3 32 -5 3
-9 21 -9 40 0 34 0 34 44 34 39 0 48 4 69 33 35 45 59 96 52 107 -3 5 -7 37
-9 70 -2 37 -9 67 -18 76 -21 21 -53 25 -76 8z"/>
<path d="M1010 2500 c0 -6 137 -10 390 -10 253 0 390 4 390 10 0 6 -137 10
-390 10 -253 0 -390 -4 -390 -10z"/>
<path d="M3210 2500 c0 -6 137 -10 390 -10 253 0 390 4 390 10 0 6 -137 10
-390 10 -253 0 -390 -4 -390 -10z"/>
<path d="M1154 2303 c3 -16 8 -46 12 -68 62 -386 341 -764 703 -954 199 -104
396 -151 632 -151 371 0 695 134 954 394 215 216 340 464 390 769 3 20 2 37
-3 37 -5 0 -17 -39 -27 -87 -53 -270 -167 -489 -356 -687 -253 -265 -593 -408
-968 -408 -364 1 -696 143 -952 409 -202 210 -312 433 -364 736 -3 20 -11 37
-16 37 -6 0 -8 -12 -5 -27z"/>
<path d="M3341 2285 c-43 -173 -159 -347 -309 -467 -180 -142 -440 -213 -659
-179 -105 17 -268 80 -351 135 -168 112 -306 296 -358 479 -10 37 -22 67 -26
67 -3 0 2 -28 11 -62 93 -319 366 -566 690 -623 196 -35 394 -5 572 85 149 76
312 247 384 403 37 81 69 181 63 199 -3 7 -10 -10 -17 -37z"/>
<path d="M3022 1610 c-50 -46 -7 -150 62 -150 72 0 101 79 50 139 -31 37 -79
42 -112 11z m83 4 c20 -8 45 -55 45 -85 0 -61 -83 -81 -119 -30 -50 69 -2 144
74 115z"/>
</g>
</svg>
